<svg width="50px" height="50px" viewBox="0 0 50 50" xmlns="http://www.w3.org/2000/svg"><g id="surface1"><path style="stroke:none;fill-rule:nonzero;fill:rgb(0%,0%,0%);fill-opacity:1;" d="M 3.125 4.6875 L 8.136719 4.6875 L 13.660156 28.164062 C 11.15625 28.371094 9.265625 30.515625 9.371094 33.027344 C 9.480469 35.535156 11.550781 37.511719 14.0625 37.5 L 40.625 37.5 C 41.488281 37.5 42.1875 36.800781 42.1875 35.9375 C 42.1875 35.074219 41.488281 34.375 40.625 34.375 L 14.0625 34.375 C 13.199219 34.375 12.5 33.675781 12.5 32.8125 C 12.5 31.949219 13.199219 31.25 14.0625 31.25 L 40.441406 31.25 C 42.617188 31.253906 44.511719 29.757812 45.003906 27.636719 L 48.3125 13.574219 C 48.640625 12.179688 48.316406 10.710938 47.425781 9.589844 C 46.535156 8.464844 45.183594 7.8125 43.75 7.8125 L 12.082031 7.8125 L 10.898438 2.765625 C 10.730469 2.0625 10.101562 1.5625 9.375 1.5625 L 3.125 1.5625 C 2.261719 1.5625 1.5625 2.261719 1.5625 3.125 C 1.5625 3.988281 2.261719 4.6875 3.125 4.6875 Z M 43.75 10.9375 C 44.222656 10.945312 44.667969 11.167969 44.964844 11.539062 C 45.257812 11.910156 45.371094 12.394531 45.273438 12.859375 L 41.960938 26.921875 C 41.796875 27.628906 41.167969 28.128906 40.441406 28.125 L 16.863281 28.125 L 12.8125 10.9375 Z M 43.75 10.9375"></path><path style="stroke:none;fill-rule:nonzero;fill:rgb(0%,0%,0%);fill-opacity:1;" d="M 31.25 43.75 C 31.25 46.339844 33.347656 48.4375 35.9375 48.4375 C 38.527344 48.4375 40.625 46.339844 40.625 43.75 C 40.625 41.160156 38.527344 39.0625 35.9375 39.0625 C 33.347656 39.0625 31.25 41.160156 31.25 43.75 Z M 37.5 43.75 C 37.5 44.613281 36.800781 45.3125 35.9375 45.3125 C 35.074219 45.3125 34.375 44.613281 34.375 43.75 C 34.375 42.886719 35.074219 42.1875 35.9375 42.1875 C 36.800781 42.1875 37.5 42.886719 37.5 43.75 Z M 37.5 43.75"></path><path style="stroke:none;fill-rule:nonzero;fill:rgb(0%,0%,0%);fill-opacity:1;" d="M 14.0625 43.75 C 14.0625 46.339844 16.160156 48.4375 18.75 48.4375 C 21.339844 48.4375 23.4375 46.339844 23.4375 43.75 C 23.4375 41.160156 21.339844 39.0625 18.75 39.0625 C 16.160156 39.0625 14.0625 41.160156 14.0625 43.75 Z M 20.3125 43.75 C 20.3125 44.613281 19.613281 45.3125 18.75 45.3125 C 17.886719 45.3125 17.1875 44.613281 17.1875 43.75 C 17.1875 42.886719 17.886719 42.1875 18.75 42.1875 C 19.613281 42.1875 20.3125 42.886719 20.3125 43.75 Z M 20.3125 43.75"></path></g></svg>